<?xml version="1.0" encoding="UTF-8"?>
<svg id="Layer_1" data-name="Layer 1" xmlns="http://www.w3.org/2000/svg" viewBox="0 0 183.05 201.48">
  <defs>
    <style>
      .cls-1 {
        stroke-width: 0px;
      }
    </style>
  </defs>
  <path class="cls-1" d="m54.95,84.61c-.43,6.03,5.68,8.77,10.63,9.92,1.41.33,2.84.56,4.28.75.95.13.94-1.37,0-1.5-5.07-.68-13.88-2.43-13.41-9.17.07-.96-1.43-.96-1.5,0h0Z"/>
  <path class="cls-1" d="m70.65,94.25c-.66-3.69-.35-7.68-2.26-11.04-1.67-2.95-5.04-4.63-8.42-4.24-1.74.2-3.35.99-4.26,2.54-.49.83.8,1.59,1.3.76,1.41-2.38,4.95-2.15,7.13-1.11,3.02,1.44,4.01,4.75,4.4,7.83.24,1.89.33,3.79.67,5.67.17.95,1.62.55,1.45-.4h0Z"/>
  <path class="cls-1" d="m60.78,92.26c2.44.13,5.07-.69,6.61-2.67.91-1.17.87-2.55.69-3.95-.19-1.5-.63-2.92-1.29-4.28-.42-.87-1.72-.11-1.3.76.53,1.09.9,2.26,1.08,3.46.16,1.1.31,2.31-.45,3.21-1.3,1.54-3.39,2.08-5.34,1.97-.96-.05-.96,1.45,0,1.5h0Z"/>
  <path class="cls-1" d="m117.71,95.47c.88.28,1.81.16,2.72.13s1.82-.02,2.71-.16c1.49-.22,3.28-1.06,4.41-2.08,1.29-1.17,2.25-3,3.04-4.53.36-.7.75-1.42.99-2.17.27-.8.03-1.55-.39-2.25-1.73-2.85-5.76-3.62-8.84-3.48-1.61.07-3.22.5-4.52,1.47-.57.43-1.06.93-1.45,1.52-.21.31-.37.65-.56.96-.27.42-.59.6-.93.93-.67.64-.44,1.47-.23,2.26.28,1.04.44,2.11.6,3.18.13.85.17,1.86.58,2.63s1.21,1.14,2,1.45c.9.35,1.29-1.1.4-1.45-.58-.22-1.04-.45-1.2-1.08-.19-.73-.27-1.5-.38-2.24-.1-.68-.21-1.36-.35-2.03-.07-.34-.16-.67-.25-1-.13-.46-.21-.49.07-.8.37-.41.74-.72,1.04-1.2.34-.57.63-1.12,1.12-1.58.89-.84,2.08-1.29,3.28-1.45,2.49-.35,5.97.11,7.8,2.01.4.42.89,1.04.79,1.65-.11.64-.58,1.35-.88,1.93-.64,1.24-1.38,2.42-2.21,3.54-.88,1.17-2.62,2.08-4.06,2.33-.75.13-1.55.11-2.31.14-.84.03-1.79.19-2.6-.06-.92-.29-1.32,1.16-.4,1.45h0Z"/>
  <path class="cls-1" d="m127.56,85.11c.11,1.01-.24,1.9-.72,2.77-.43.78-.91,1.56-1.46,2.27-1.08,1.38-2.75,2.51-4.53,1.74-.95-.41-1.47-1.02-1.97-1.91-.47-.83-.88-1.64-.77-2.62.1-.92.45-1.85.89-2.67.19-.36.4-.74.7-1.03.33-.32.78-.46,1.21-.59,2.12-.64,4.36-.59,6.46.09.92.29,1.32-1.15.4-1.45-2.31-.74-4.83-.79-7.16-.11-1.16.34-2.01.86-2.66,1.91-.6.98-1.05,2.11-1.25,3.25-.22,1.26.03,2.37.63,3.49.54,1.02,1.13,1.98,2.14,2.59s2.08.93,3.22.76,2.16-.75,2.98-1.53c.94-.88,1.64-2,2.29-3.09.69-1.17,1.28-2.48,1.12-3.87-.05-.41-.31-.75-.75-.75-.37,0-.8.35-.75.75h0Z"/>
  <path class="cls-1" d="m94.11,169.33l-.43-9.91c-.04-.96-1.54-.97-1.5,0l.43,9.91c.04.96,1.54.97,1.5,0h0Z"/>
  <path class="cls-1" d="m99.26,160.29c1.21-.59,2.46-1.21,3.8-1.37s2.8.21,4.1.73v-1.45c-.88.27-1.78.61-2.33,1.38-.3.42-.41.91-.47,1.42-.05.38.02.96-.21,1.29-.2.29-.8.33-1.11.34-.47.02-.94-.03-1.4-.12-1.08-.21-2.13-.53-3.22-.67-.4-.05-.75.38-.75.75,0,.45.35.7.75.75,2.04.26,4.28,1.41,6.29.39,1.02-.52,1.03-1.61,1.14-2.6.05-.42.16-.75.52-1s.79-.37,1.2-.5c.76-.23.66-1.18,0-1.45-1.49-.6-3.09-.97-4.7-.76s-2.97.88-4.36,1.55c-.87.42-.11,1.72.76,1.3h0Z"/>
  <path class="cls-1" d="m88.72,163.75c.73-2.16-1.26-3.79-3.02-4.53-.94-.39-1.94-.62-2.94-.8s-2.04-.34-2.93.2c-.71.44-1.16,1.37-.94,2.2.13.47.44.78.84,1.04.29.19.32.39.3.73-.03.4-.19.78-.24,1.19-.07.57.1,1.09.57,1.45.79.6,1.99.79,2.95.87,1.13.1,2.31-.02,3.4-.3s2.12-1.02,2.11-2.25c0-.96-1.51-.97-1.5,0,0,.6-.81.76-1.27.86-.76.17-1.54.24-2.31.21s-1.49-.16-2.18-.44c-.3-.13-.32-.1-.24-.41.09-.35.18-.7.21-1.06.06-.66-.1-1.39-.61-1.84-.15-.14-.51-.28-.57-.44.01.03,0-.09.02-.11.02-.09.05-.17.1-.24.33-.48,1.17-.33,1.64-.25.78.13,1.57.29,2.33.53,1.22.38,3.41,1.35,2.86,3-.31.92,1.14,1.31,1.45.4h0Z"/>
  <path class="cls-1" d="m74.06,156.13c-.18,3.91,1.11,7.51,3.48,10.59,1.17,1.53,2.45,3.17,3.93,4.42,1.4,1.18,2.98,1.42,4.74,1.6,2.17.22,4.14-.56,6.3-.6s4.08.26,6.13.23c3.21-.05,6.51-.98,8.3-3.84.46-.73.8-1.53,1.23-2.28.51-.91,1.17-1.71,1.72-2.6,1.02-1.64,1.31-3.5,1.44-5.39.25-3.54-.15-7.27-1.84-10.44-.74-1.39-1.76-2.77-3.09-3.66-1.6-1.06-3.69-1.33-5.54-1.69-4.25-.83-8.62-1.32-12.96-.93-4.05.37-8.24,1.38-10.97,4.61-2.37,2.8-3.42,6.5-3.2,10.13.06.96,1.56.97,1.5,0-.18-3.01.55-6.06,2.33-8.52,1.97-2.71,4.98-3.9,8.19-4.45,3.76-.64,7.65-.49,11.42.04,1.73.24,3.45.57,5.16.95,1.81.4,3.32.86,4.56,2.31,2.12,2.48,2.9,5.84,3,9.03.05,1.58,0,3.24-.32,4.8-.39,1.85-1.53,3.13-2.48,4.7-.77,1.28-1.26,2.77-2.38,3.81-1.23,1.15-2.94,1.65-4.58,1.83-3.36.38-6.74-.52-10.1.09-2.03.37-4.02.66-6.06,0-1.8-.58-3.11-2.51-4.28-3.9-2.67-3.16-4.31-6.65-4.11-10.86.04-.97-1.46-.96-1.5,0h0Z"/>
  <path class="cls-1" d="m98.9,162.7c-.03-.14-.05-.28-.08-.42-.01-.07-.02-.14-.03-.21,0-.03,0-.06-.01-.09.01.1.01.11,0,.02-.03-.27-.05-.53-.04-.8,0-.06,0-.12.01-.18.01-.18-.03.17,0-.01.02-.12.05-.24.08-.36.02-.05.03-.1.05-.15.03-.08.02-.07-.02.03.01-.03.03-.06.04-.09.05-.11.12-.21.19-.31.23-.32.07-.85-.27-1.03-.39-.21-.78-.07-1.03.27-.79,1.09-.59,2.5-.36,3.73.07.39.56.64.92.52.41-.13.6-.51.52-.92h0Z"/>
  <path class="cls-1" d="m37.78,158.16c-1.09,3.54-1.47,7.41-.56,11.04.4,1.58,1.08,3.41,2.19,4.64.68.76,1.59,1.39,2.32,2.11s1.5,1.55,2.21,2.35c2.75,3.11,5.2,6.5,8.16,9.43,1.41,1.4,2.92,2.83,4.62,3.88,1.59.98,3.32,1.7,4.89,2.72.81.53,1.57-.77.76-1.3-1.46-.95-3.06-1.63-4.56-2.51-1.6-.95-3-2.24-4.34-3.54-2.79-2.7-5.12-5.83-7.64-8.78-1.26-1.48-2.57-2.91-4-4.23-.78-.72-1.51-1.32-2.04-2.27-.42-.75-.74-1.54-.98-2.37-1.03-3.52-.65-7.32.41-10.78.28-.92-1.16-1.32-1.45-.4h0Z"/>
  <path class="cls-1" d="m58.98,191.59l3.28,1.73c.37.2.8.08,1.03-.27.74-1.13.07-2.2.32-3.38.03-.15.1-.44.26-.53.26-.15,1.1.38,1.35.49.51.22,1.03.53,1.58.64,1.08.21,1.83-.61,1.97-1.61.09-.61-.17-1.15-.16-1.74.02-.72.46-.85,1.11-.89.98-.07,2.24.21,2.83-.8.54-.92.15-2.03.79-2.96.32-.45.76-.82,1.26-1.06.63-.3,1.13-.17,1.78-.21.49-.02.91-.23,1.15-.66.18-.32.03-.97.23-1.2.63-.73-.43-1.79-1.06-1.06-.33.38-.35.71-.46,1.17-.1.42.05.29-.4.21-.21-.04-.46.01-.68.05-1.08.15-2.08.73-2.79,1.57-.76.9-.91,1.81-1.04,2.94-.05.46-.09.48-.55.5-.24.01-.48,0-.71,0-.55.01-1.12.05-1.64.26-1.07.43-1.44,1.43-1.29,2.52.04.31.15.63.15.95,0,.47-.09.55-.53.44-.69-.16-1.34-.62-2.01-.86-1.03-.38-1.98-.05-2.43.97-.2.45-.26.95-.24,1.43.04.7.33,1.45-.09,2.08l1.03-.27-3.28-1.73c-.85-.45-1.61.84-.76,1.3h0Z"/>
  <path class="cls-1" d="m106.04,175.42c1.25.73,1.83,2.29,1.23,3.65-.13.28-.16.69.12.91.54.44,1.08.56,1.77.52.2-.01.97-.23,1.15-.11.24.16.32,1.21.45,1.47.99,2,3.44,1.7,5.22,1.23l-.92-.92c-.2.97-.4,1.94-.6,2.92-.12.57.34,1.06.92.92,1.84-.43,3.87,1.82,1.86,3.08-.68.42-.33,1.31.38,1.4.89.11,1.77.22,2.66.33l-.2-1.47c-3.37,1.14-6.63,2.57-9.75,4.28-.52.29-.47,1.27.18,1.37,3.24.49,6.49.11,9.51-1.2,1.6-.69,2.88-1.68,4.28-2.69.48-.35,1.03-.71,1.38-.13.2.33.1.54.19.89.14.57.56.85,1.08,1.03,1.4.49,3.18.79,4.63.4s2.44-1.55,3.26-2.76c2.23-3.3,4.45-6.64,6.56-10.03,4.07-6.55,5.41-14.08,5.72-21.69.12-2.98-.08-6.22-1.68-8.83-.79-1.28-1.89-2.24-3.13-3.07-1.37-.91-2.95-1.7-3.88-3.12-1.09-1.67-1.4-3.77-2.26-5.56-.94-1.98-2.2-3.8-3.38-5.64-2.62-4.06-5.24-8.12-7.86-12.18-.52-.81-1.82-.06-1.3.76,2.21,3.43,4.43,6.86,6.64,10.29,2.01,3.12,4.29,6.18,5.47,9.74.44,1.34.86,2.71,1.74,3.84.96,1.24,2.3,2.04,3.6,2.87s2.38,1.68,3.15,2.99c.86,1.47,1.23,3.19,1.35,4.87.25,3.36-.16,6.85-.63,10.18-.53,3.73-1.46,7.39-3.15,10.77s-3.84,6.33-5.86,9.41c-.96,1.46-1.84,3.05-2.94,4.42-.63.78-1.38,1.31-2.42,1.41-.48.05-.98,0-1.46-.08-.32-.05-1.44-.14-1.65-.38-.23-.26-.05-.81-.23-1.23-.24-.55-.77-.93-1.34-1.08-1.6-.42-2.82,1.05-4,1.85-3.21,2.19-7.18,3.09-11.01,2.51l.18,1.37c3.01-1.64,6.14-3.02,9.39-4.12.84-.29.62-1.37-.2-1.47-.89-.11-1.77-.22-2.66-.33l.38,1.4c1.33-.83,1.93-2.54,1.26-4.01-.74-1.63-2.62-2.21-4.27-1.82l.92.92c.2-.97.4-1.94.6-2.92.11-.55-.34-1.08-.92-.92-.97.26-3.05.85-3.54-.58-.22-.63.04-1.22-.52-1.75-.33-.32-.77-.42-1.22-.43-.49-.01-1.46.36-1.86.03l.12.91c.94-2.1.24-4.52-1.77-5.7-.83-.49-1.59.81-.76,1.3h0Z"/>
  <path class="cls-1" d="m38.53,158.04c-.39-3.05-.81-6.64.73-9.46.88-1.61,2.36-2.41,3.89-3.3,1.32-.77,2.45-1.69,3.36-2.92,1.89-2.55,2.67-5.69,4.23-8.42s3.95-4.98,5.21-7.92c.32-.74.55-1.5.66-2.3.13-.92-.09-1.94.14-2.83.27-1.08,1.34-1.96,2.05-2.76.83-.93,1.66-1.85,2.49-2.78.64-.72-.41-1.78-1.06-1.06-1.34,1.5-2.78,2.95-4.02,4.52s-.84,2.8-1.05,4.56c-.4,3.39-3.23,6.02-5.03,8.72s-2.66,6.13-4.5,8.93c-1.05,1.6-2.47,2.53-4.1,3.46-1.36.78-2.57,1.7-3.4,3.06-1.89,3.1-1.54,7.07-1.1,10.51.12.94,1.62.96,1.5,0h0Z"/>
  <path class="cls-1" d="m125.58,120.62c-.63-1.15-1.07-2.17-1.13-3.48-.05-1.19-.32-2.16-.88-3.23-1.19-2.29-2.39-4.57-3.59-6.86-.45-.86-1.74-.1-1.3.76,1.2,2.29,2.4,4.57,3.59,6.86.28.55.55,1.1.63,1.72.07.58.04,1.17.12,1.75.15,1.17.7,2.21,1.26,3.24.46.85,1.76.09,1.3-.76h0Z"/>
  <path class="cls-1" d="m38.49,146.21c.16-3.68.3-7.39-.34-11.04s-2.3-6.91-4.05-10.14c-.46-.85-1.76-.09-1.3.76,1.69,3.12,3.28,6.25,3.9,9.78s.44,7.1.29,10.64c-.04.97,1.46.96,1.5,0h0Z"/>
  <path class="cls-1" d="m146.58,149.48c.55-2.14-.72-4.64.32-6.62.61-1.17,1.38-1.13,2.46-.63.66.31,1.35.5,2.05.18,1.48-.69,1.23-2.55,1.01-3.85s.19-1.81,1.39-2.09c.62-.14,1.3-.22,1.85-.56,1.67-1.03.29-2.65-.12-3.95-.75-2.36-.88-5.09-1.17-7.54-.61-5.09-.92-10.19-.87-15.32.06-5.76.25-11.52.39-17.28.02-.97-1.48-.97-1.5,0-.24,10.05-.82,20.14.21,30.17.25,2.43.56,4.85.93,7.26.17,1.1.29,2.24.63,3.29.13.4.32.75.49,1.13.29.68.43.92-.31,1.13-1.23.35-2.66.42-3.27,1.75-.35.76-.23,1.6-.09,2.39.07.4.23.88.15,1.29-.2,1.05-.95.68-1.64.37-1.58-.72-3.08-.02-3.88,1.48-1.21,2.25.13,4.65-.47,6.98-.24.94,1.2,1.33,1.45.4h0Z"/>
  <path class="cls-1" d="m31.09,125.23c-1.3-2.72-3.68-5.99-7.11-4.38l1.1.45c-.74-2.73-.53-5.66.73-8.22.97-1.97,2.73-3.73,2.23-6.11-.23-1.11-1.13-2.34-.45-3.44.54-.88,1.6-1.37,2.27-2.14,1.07-1.22,1.16-2.72.51-4.17-.74-1.68-2.37-3.11-2.67-4.96-.33-2.02,1.82-3.46,1.91-5.43.04-.84-.3-1.62-.87-2.22-.74-.76-1.91-1.1-2.49-1.99-.63-.96.19-1.27.97-1.57.45-.17.9-.37,1.31-.62.86-.51,1.63-1.23,2.06-2.14,1-2.11-.03-4.08-2.05-4.92-.28-.12-.65-.2-.89-.38-.56-.42-.42-.93,0-1.39.31-.35.67-.61.92-1.03.56-.96.62-2.12.24-3.16-.33-.9-1.78-.51-1.45.4.52,1.4-.18,2.06-1.11,2.97-.64.63-.93,1.4-.52,2.26.38.8,1.1,1.23,1.88,1.56.69.28,1.46.5,1.74,1.27.24.63.12,1.38-.2,1.96-.63,1.12-1.86,1.59-2.99,2.01-.83.31-1.56.82-1.69,1.77-.29,2.24,2.06,2.74,3.21,4.07.9,1.04.11,2.16-.46,3.14-.5.87-1,1.79-1.05,2.82-.08,1.72,1,3.21,1.9,4.58.47.71,1.02,1.48,1.19,2.33.23,1.11-.45,1.84-1.24,2.52-1.48,1.27-2.6,2.43-2,4.51.17.6.47,1.17.58,1.79.16.97-.24,1.82-.71,2.63-.7,1.2-1.45,2.32-1.94,3.63-.97,2.58-1.03,5.41-.32,8.06.14.5.67.65,1.1.45,2.55-1.19,4.2,2.04,5.06,3.84.42.87,1.71.11,1.3-.76h0Z"/>
  <path class="cls-1" d="m154.48,91.23c-1.25-1.9-2.51-3.79-3.76-5.69l-.65,1.13c1.72-.17,2.69-1.54,2.91-3.18.32-2.4-1.39-4.21-1.66-6.49-.15-1.22.41-2.42.03-3.63-.35-1.12-1.32-1.89-1.85-2.92-1.17-2.31-.9-5.24.7-7.28.39-.5.17-1.26-.53-1.28-1.59-.06-3.18-.11-4.78-.17l.72.95c.61-2.63,1.22-5.37.93-8.08s-1.73-4.82-3.13-7.12c-2.96-4.85-3.16-10.64-3.32-16.16-.02-.61-.61-.88-1.13-.65-2.91,1.31-5.69-1.22-7.63-3.07-.92-.88-1.86-1.75-2.91-2.47s-2.32-1.33-3.35-2.17c-1.78-1.44-2.21-3.75-3.75-5.35-.83-.86-1.87-1.24-3.03-1.41-.6-.09-1.21-.12-1.8-.29-.32-.09-.65-.2-.92-.4-.35-.26-.97-1.74.09-1.47.67.17,1.35-.76.73-1.25-1.26-1-1.21-3.07.24-3.89.53-.3.44-.97,0-1.3-2.02-1.49-4.64-1.64-6.86-.51l1.1.45c-.15-.65-.21-1.28-.2-1.94,0-.52-.66-1-1.13-.65-2.83,2.12-5.93,3.81-9.26,5l.85,1.1c.98-1.59,1.54-3.27,1.75-5.12.06-.49-.52-.85-.95-.72-1.49.43-2.75,1.23-3.74,2.43l1.25.33c-.35-2.5-2.89-4.09-5.29-3.54l.92.52c-.18-1.26.5-2.33,1.6-2.88.55-.27.46-1.27-.18-1.37-5.72-.91-10.02,4.66-7.74,9.97l.45-1.1c-1.93.29-3.85.19-5.75-.28l.52.52c-.2-1.35-.39-2.7-.59-4.05-.06-.42-.57-.6-.92-.52-1.49.32-2.68,1.2-3.44,2.52-.41.71.62,1.59,1.18.91,1.94-2.36,2.24-5.64.62-8.27-.25-.4-.84-.51-1.18-.15-1.52,1.59-3.05,3.17-4.57,4.76l1.18.15c-.89-1.57-2.35-2.46-4.13-2.63-.4-.04-.75.38-.75.75,0,1.92.51,3.72,1.53,5.34l.45-1.1c-1.86.41-3.13,2.05-3.09,3.95l1.4-.38c-.66-.95-1.51-1.57-2.64-1.84-.37-.09-.84.12-.92.52-.46,2.32-.31,4.63.52,6.85l.52-.92c-3.8,1.28-5.44-5.21-9.19-5.23-1.27,0-2.68.62-3.27,1.8-.25.5-.31,1.08-.19,1.62.09.4.3.75.5,1.1.02.03,1.07,1.76.46,1.61-.8-.2-1.36.97-.58,1.37.64.33.53,1.23.09,1.71-.68.74-1.95.5-2.8.27-1.66-.44-3.09-1.28-4.86-1.12-.32.03-.64.21-.72.55-.71,2.95,1.03,5.99,3.95,6.85l-.18-1.37c-1.6.69-3.28.7-4.91.13-.37-.13-.84.15-.92.52-.18.8-.37,1.59-.55,2.39l.52-.52c-.67.25-1.33.49-2,.74-.38.14-.64.5-.52.92.54,1.92,1.33,3.72,2.37,5.41l.65-1.13c-5.51.3-10.86,1.56-15.94,3.71-.48.2-.43.86-.15,1.18.87.99,1.93,1.64,3.21,1.99l.2-1.47c-3.61.3-6.92,1.76-9.57,4.24-.52.48-.07,1.22.53,1.28,5.9.59,11.81,1.17,17.71,1.76l-.38-1.4c-5.12,2.27-13.89-1.92-16.98,4.63-.26.55.06,1.06.65,1.13,1.99.23,3.95.14,5.91-.24l-.73-1.25c-1.06.85-2.11,1.7-3.17,2.55-.31.25-.26.8,0,1.06,1.77,1.74,4.11,2.44,6.54,2.06l-.4-1.45c-1.19.37-2.38.75-3.57,1.12-.48.15-.68.66-.45,1.1.64,1.22,1.29,2.45,1.93,3.67l.85-1.1c-2.7-.38-5.21-1.4-7.37-3.08-.51-.39-1.57-.06-1.25.73,1.12,2.79,2.72,5.28,4.81,7.44l.53-1.28c-1.46-.07-2.26,1.85-1.17,2.83l.53-1.28c-2.55.3-5.08.69-7.6,1.17-1.55.3-4.07.49-4.81,2.2-.78,1.81,1.28,2.83,2.61,3.43,2.19.99,4.5,1.56,6.89,1.77.96.08.96-1.42,0-1.5-1.66-.14-3.28-.49-4.85-1.05-.79-.28-1.55-.61-2.29-1.01-.26-.14-1.07-.62-1.02-.99s.82-.69,1.1-.8c1.37-.52,2.99-.66,4.42-.92,1.84-.32,3.68-.59,5.54-.81.59-.07,1.06-.8.53-1.28l.11-.27c.67.03.97-.83.53-1.28-1.9-1.96-3.41-4.24-4.43-6.78l-1.25.73c2.36,1.84,5.06,3.04,8.03,3.46.64.09,1.17-.48.85-1.1-.64-1.22-1.29-2.45-1.93-3.67l-.45,1.1c1.19-.37,2.38-.75,3.57-1.12.94-.3.54-1.59-.4-1.45-1.89.29-3.73-.34-5.08-1.68v1.06c1.06-.85,2.11-1.7,3.17-2.55.64-.51-.07-1.38-.73-1.25-1.84.35-3.66.4-5.51.19l.65,1.13c1.25-2.66,4.42-3.27,7.1-3.26,3.19.01,6.32.5,9.34-.83.76-.33.27-1.33-.38-1.4-5.9-.59-11.81-1.17-17.71-1.76l.53,1.28c2.34-2.19,5.31-3.53,8.51-3.8.81-.07,1.06-1.24.2-1.47-1.05-.29-1.83-.79-2.54-1.61l-.15,1.18c4.82-2.04,9.96-3.22,15.18-3.51.55-.03.96-.62.65-1.13-.98-1.59-1.72-3.26-2.22-5.05l-.52.92c.66-.24,1.81-.42,2.33-.93.56-.54.58-2,.75-2.72l-.92.52c2.03.71,4.1.57,6.07-.28.62-.27.39-1.2-.18-1.37-2.12-.62-3.42-2.86-2.9-5.01l-.72.55c2.72-.25,5.78,2.63,8.37.71,1.4-1.04,1.64-3.49-.05-4.37l-.58,1.37c1.42.35,2.38-1.15,2-2.45-.23-.79-1.33-1.64-1.1-2.51s1.42-1.19,2.18-1.1c1.99.22,3.22,2.61,4.6,3.81s3.03,1.94,4.79,1.34c.36-.12.67-.52.52-.92-.73-1.97-.93-3.99-.52-6.05l-.92.52c.75.18,1.3.52,1.74,1.16.4.58,1.41.41,1.4-.38-.02-1.27.76-2.23,1.99-2.5.47-.1.7-.71.45-1.1-.89-1.41-1.33-2.92-1.33-4.59l-.75.75c1.25.12,2.22.81,2.83,1.89.23.41.85.5,1.18.15,1.52-1.59,3.05-3.17,4.57-4.76l-1.18-.15c1.24,2.01,1.13,4.61-.39,6.45l1.18.91c.58-1,1.42-1.59,2.54-1.83l-.92-.52c.2,1.35.39,2.7.59,4.05.04.24.3.47.52.52,2.17.54,4.33.62,6.54.28.53-.08.62-.71.45-1.1-1.74-4.06,1.7-8.46,6.05-7.77l-.18-1.37c-1.75.88-2.57,2.68-2.29,4.58.06.41.57.6.92.52,1.68-.38,3.21.84,3.45,2.5.08.54.92.74,1.25.33.83-1.01,1.82-1.68,3.08-2.04l-.95-.72c-.18,1.58-.71,3.02-1.55,4.37-.33.53.22,1.33.85,1.1,3.45-1.24,6.68-2.95,9.61-5.15l-1.13-.65c0,.8.08,1.56.26,2.34.11.5.69.66,1.1.45,1.77-.9,3.76-.66,5.35.51v-1.3c-2.21,1.26-2.57,4.64-.54,6.25l.73-1.25c-1.23-.31-2.3.55-2.5,1.78s.77,2.27,1.85,2.74c1.65.73,3.63.22,4.94,1.68,1.05,1.17,1.5,2.78,2.46,4.02s2.25,2.01,3.54,2.8c1.76,1.08,3.18,2.41,4.69,3.8,2.36,2.17,5.44,4,8.66,2.56l-1.13-.65c.15,5.09.34,10.36,2.53,15.06,1.13,2.43,3.12,4.48,3.74,7.14.67,2.9-.03,5.93-.68,8.77-.11.49.22.93.72.95,1.59.06,3.18.11,4.78.17l-.53-1.28c-2.62,3.34-2.25,7.45.19,10.72.97,1.3.39,2.41.45,3.87.04,1.03.4,1.99.79,2.93.41,1,.96,2.03.96,3.14,0,.94-.36,2.28-1.47,2.39-.52.05-.99.61-.65,1.13l3.76,5.69c.53.8,1.83.05,1.3-.76h0Z"/>
  <path class="cls-1" d="m33.85,126.23c-.07-.03-.15-.06-.22-.09-.02,0-.13-.05-.03-.01s-.01,0-.03-.01c-.14-.06-.29-.13-.43-.2-.27-.14-.54-.3-.8-.47-.12-.08-.25-.17-.37-.26-.02-.01-.11-.09-.03-.02.09.07-.04-.03-.05-.04-.05-.04-.11-.09-.16-.13-.24-.2-.47-.42-.69-.65-.27-.29-.79-.29-1.06,0s-.29.76,0,1.06c.96,1.02,2.16,1.78,3.47,2.27.37.14.84-.15.92-.52.1-.43-.13-.78-.52-.92h0Z"/>
  <path class="cls-1" d="m127.27,81.65c.22.12.43.25.64.4.03.02.18.14.06.05.04.04.09.07.13.11.09.08.19.16.28.25.36.33.68.7.98,1.08.03.04.09.12.03.04.04.05.08.11.12.16.07.09.14.18.2.28.15.2.29.41.44.61.29.41.57.82.87,1.21.24.31.66.51,1.03.27.31-.2.52-.69.27-1.03-1.28-1.7-2.35-3.67-4.29-4.72-.34-.19-.83-.1-1.03.27s-.1.83.27,1.03h0Z"/>
  <path class="cls-1" d="m87.99,89.62l-.68-8.89c-.03-.42-.22-1.05.16-1.35.27-.22.71-.28,1.03-.37.86-.25,1.63-.6,1.94-1.5s-1.13-1.31-1.45-.4c-.09.25-.48.33-.7.4-.42.13-.85.23-1.25.41-1.11.49-1.33,1.45-1.25,2.58.23,3.04.47,6.09.7,9.13.07.96,1.57.96,1.5,0h0Z"/>
  <path class="cls-1" d="m85.74,133.76c-4.88-1.1-10-.45-14.44,1.84-.86.44-.1,1.74.76,1.3,4.07-2.1,8.81-2.7,13.28-1.69.94.21,1.34-1.23.4-1.45h0Z"/>
  <path class="cls-1" d="m70.84,139.76c-4.81,1.65-8.97,4.78-11.9,8.94-.56.79.74,1.54,1.3.76,2.69-3.82,6.59-6.73,11-8.25.91-.31.52-1.76-.4-1.45h0Z"/>
  <path class="cls-1" d="m70.87,130.63c-2.29.52-4.32,2.06-5.45,4.12-.19.36-.09.82.27,1.03s.83.09,1.03-.27c.12-.22.25-.44.4-.65.06-.09.18-.26.21-.29-.04.05.09-.1.08-.1.04-.05.08-.1.12-.14.17-.19.34-.37.53-.55.1-.1.21-.19.31-.28.04-.03.08-.06.12-.1.19-.16-.11.08.09-.07.41-.3.84-.57,1.3-.79.39-.18.88-.35,1.4-.47.4-.09.63-.54.52-.92-.11-.41-.53-.61-.92-.52h0Z"/>
  <path class="cls-1" d="m107.58,132.12c2.08.09,4.31.23,6.15,1.32,1.55.92,2.71,2.58,2.46,4.44-.05.4.38.75.75.75.45,0,.7-.35.75-.75.3-2.26-1.14-4.38-2.96-5.58-2.09-1.37-4.72-1.56-7.14-1.67-.97-.04-.96,1.46,0,1.5h0Z"/>
  <path class="cls-1" d="m116.55,145.08c2.52,1.61,5.22,3.1,7.47,5.09,2.09,1.86,3.77,4.36,3.61,7.26-.05.96,1.45.96,1.5,0,.37-6.85-6.93-10.53-11.82-13.65-.82-.52-1.57.78-.76,1.3h0Z"/>
  <path class="cls-1" d="m122.62,139.4c2.03,1.46,3.86,3.19,5.45,5.12.77.94,1.48,1.94,2.12,2.97s1.54,2.32,1.17,3.61c-.27.93,1.18,1.33,1.45.4.42-1.44-.18-2.82-.89-4.05s-1.52-2.39-2.4-3.5c-1.76-2.23-3.84-4.18-6.14-5.84-.78-.56-1.53.74-.76,1.3h0Z"/>
  <path class="cls-1" d="m68.27,152.02c-3.58,2.95-5.16,7.94-4.05,12.43.23.94,1.68.54,1.45-.4-1-4,.49-8.35,3.66-10.97.74-.62-.32-1.67-1.06-1.06h0Z"/>
  <path class="cls-1" d="m56.2,163.83c.11,5.83-1.37,12.32,2.21,17.47.55.79,1.85.04,1.3-.76-3.4-4.9-1.9-11.17-2-16.71-.02-.96-1.52-.97-1.5,0h0Z"/>
  <path class="cls-1" d="m122.8,167.51c.91,1.69,2.41,2.9,3.61,4.37,1.29,1.57,1.88,3.59,1.48,5.6-.19.94,1.26,1.35,1.45.4.44-2.22-.01-4.54-1.35-6.39-1.2-1.66-2.92-2.91-3.9-4.73-.46-.85-1.75-.09-1.3.76h0Z"/>
  <path class="cls-1" d="m91.22,132.57c-.57-3.99-1.36-7.95-2.35-11.86-.24-.94-1.68-.54-1.45.4.99,3.91,1.77,7.87,2.35,11.86.06.4.57.62.92.52.43-.11.58-.52.52-.92h0Z"/>
  <path class="cls-1" d="m95.8,128.16c-.21-3.17.31-6.32,1.53-9.26.16-.37-.17-.82-.52-.92-.43-.12-.77.15-.92.52-1.26,3.05-1.8,6.37-1.58,9.66.06.96,1.56.97,1.5,0h0Z"/>
  <path class="cls-1" d="m87.23,114.05c-.06-1.38-.94-2.37-2-3.16-1.3-.97-2.74-1.79-4.17-2.56s-2.89-1.45-4.38-2.08c-1.59-.66-3.24-1.27-4.99-1.18-.96.05-.97,1.55,0,1.5,1.49-.08,2.86.42,4.22.97s2.64,1.16,3.92,1.83,2.48,1.38,3.67,2.15c.89.58,2.17,1.32,2.23,2.52.04.96,1.54.97,1.5,0h0Z"/>
  <path class="cls-1" d="m73.69,106.7c-4.38.44-8.59,2-12.15,4.6-.77.56-.02,1.87.76,1.3,3.34-2.44,7.27-3.98,11.39-4.39.95-.09.96-1.6,0-1.5h0Z"/>
  <path class="cls-1" d="m93.18,111.2c-.47-1.16-.27-2.34-.09-3.54s.31-2.35.02-3.53-.85-2.29-.77-3.58c.07-1.14.54-2.24,1.29-3.1.64-.72-.42-1.79-1.06-1.06-1.82,2.06-2.06,4.61-1.21,7.14.22.66.42,1.3.44,2s-.1,1.39-.21,2.08c-.2,1.34-.38,2.69.15,3.98.36.88,1.81.5,1.45-.4h0Z"/>
  <path class="cls-1" d="m96.22,108.69c1.01-.5,1.6-1.51,2.34-2.32s1.61-1.59,2.54-2.24c1.88-1.29,4.01-2.14,6.26-2.5.95-.15.55-1.6-.4-1.45-2.3.37-4.53,1.25-6.47,2.55-.94.63-1.83,1.36-2.63,2.18s-1.39,1.98-2.4,2.48c-.86.43-.11,1.72.76,1.3h0Z"/>
  <path class="cls-1" d="m102.75,108.01c3.62-1.53,7.62-1.98,11.49-1.23.94.18,1.35-1.26.4-1.45-4.12-.81-8.41-.41-12.28,1.23-.38.16-.64.49-.52.92.09.35.55.68.92.52h0Z"/>
  <path class="cls-1" d="m103.04,93.65c2.21-1.89,2.72-5.42,1.16-7.87-.52-.81-1.82-.06-1.3.76,1.22,1.92.82,4.57-.93,6.06-.31.26-.27.79,0,1.06.31.31.75.26,1.06,0h0Z"/>
  <path class="cls-1" d="m99.18,84.67c.89-1.1.53-2.33.11-3.56-.6-1.75-1.23-3.49-1.79-5.25-.51-1.6-.88-3.28.04-4.8.72-1.19,1.7-2.15,2.19-3.48.33-.91-1.12-1.3-1.45-.4-.46,1.26-1.52,2.17-2.16,3.34-.69,1.25-.77,2.61-.53,3.99.28,1.59.92,3.13,1.45,4.65.29.83.57,1.67.86,2.5.17.51.62,1.44.22,1.94-.6.74.45,1.81,1.06,1.06h0Z"/>
  <path class="cls-1" d="m107.99,75.69c1.73-3.51,3.59-7.31,6.99-9.49.81-.52.06-1.82-.76-1.3-3.64,2.34-5.67,6.26-7.53,10.03-.42.86.87,1.62,1.3.76h0Z"/>
  <path class="cls-1" d="m117.74,71.34c2.62-2.05,5.92-3.15,9.24-3.17.96,0,.97-1.51,0-1.5-3.75.02-7.35,1.31-10.3,3.61-.32.25-.26.8,0,1.06.31.32.74.25,1.06,0h0Z"/>
  <path class="cls-1" d="m72.07,80.04c-1.3-2.79-3.19-5.24-5.16-7.58-1.77-2.11-4.12-5.01-7.27-3.96-.91.3-.52,1.75.4,1.45,2.67-.89,4.76,2.31,6.2,4.05,1.75,2.1,3.37,4.32,4.53,6.81.41.87,1.7.11,1.3-.76h0Z"/>
  <path class="cls-1" d="m77.14,71.66c-2.73-3.87-5.59-7.39-10.35-8.66-2.62-.7-5.25-1.3-7.83-2.14-2.18-.71-4.38-1.58-6.59-.54-.87.41-.11,1.71.76,1.3,2.06-.97,4.71.48,6.69,1.09,2.17.67,4.38,1.16,6.57,1.75,4.37,1.17,6.95,4.42,9.46,7.97.55.78,1.85.03,1.3-.76h0Z"/>
  <path class="cls-1" d="m75.37,59.7c-.11-2.14-2.67-3.45-4.32-4.38-2.29-1.29-4.78-2.32-7.26-3.19s-5.09-1.12-7.78-.63-5.59,1.41-8.27,2.39c-.9.33-.51,1.78.4,1.45,4.32-1.57,9.32-3.46,13.93-2.19,2.16.6,4.28,1.51,6.3,2.47.91.43,1.81.9,2.68,1.43s2.77,1.46,2.83,2.64c.05.96,1.55.97,1.5,0h0Z"/>
  <path class="cls-1" d="m83.79,70.92c-1.17-5.03-2.31-10.39.07-15.25.97-1.98,2.05-3.87,2.05-6.14,0-2.54-1.05-4.93-2.12-7.18-.41-.87-1.71-.11-1.3.76,1.17,2.46,2.37,5.22,1.73,8-.52,2.25-2.04,4.14-2.69,6.36-1.33,4.54-.25,9.38.8,13.85.22.94,1.67.54,1.45-.4h0Z"/>
  <path class="cls-1" d="m99.85,55.72c1.78-.7,3.35-1.79,4.54-3.31,1.27-1.62,1.69-3.93,3.29-5.27s3.79-1.56,5.75-1.7c2.21-.16,4.38-.29,6.42-1.24.87-.41.11-1.7-.76-1.3-3.74,1.76-8.31.28-11.85,2.71-1.65,1.13-2.24,2.86-3.15,4.56-1,1.88-2.65,3.33-4.63,4.11-.89.35-.5,1.8.4,1.45h0Z"/>
  <path class="cls-1" d="m114.4,59.44c3.21-.26,5.95-2.22,9.13-2.57s6.09.73,8.28,2.82c.7.67,1.76-.39,1.06-1.06-2.28-2.17-5.37-3.4-8.52-3.32-3.53.09-6.48,2.34-9.95,2.63-.96.08-.96,1.58,0,1.5h0Z"/>
  <path class="cls-1" d="m133.57,70.03c2.64-.66,4.68,1.72,5.76,3.8,1.25,2.4,1.99,5.05,3.91,7.05.67.7,1.73-.36,1.06-1.06-2.07-2.16-2.67-5.24-4.23-7.73-1.46-2.32-4.03-4.23-6.9-3.51-.94.23-.54,1.68.4,1.45h0Z"/>
  <path class="cls-1" d="m133.67,111.77c2.3,2.54,4.15,5.44,5.51,8.59.16.37.71.46,1.03.27.38-.22.43-.65.27-1.03-1.41-3.26-3.36-6.26-5.74-8.89-.65-.72-1.71.35-1.06,1.06h0Z"/>
  <path class="cls-1" d="m45.86,110.2c-3.16,2.18-6.43,4.55-7.88,8.25-.15.38.16.82.52.92.43.12.77-.15.92-.52,1.29-3.28,4.4-5.43,7.19-7.35.33-.23.48-.66.27-1.03-.19-.33-.69-.5-1.03-.27h0Z"/>
  <path class="cls-1" d="m135.21,124.13c4.61,2.51,8.53,6.16,11.35,10.59.52.81,1.82.06,1.3-.76-2.95-4.64-7.05-8.49-11.88-11.13-.85-.46-1.61.83-.76,1.3h0Z"/>
  <path class="cls-1" d="m142.84,105.13c3.03,1.58,5.69,3.73,7.88,6.34.26.31.79.27,1.06,0,.31-.31.26-.75,0-1.06-2.26-2.7-5.06-4.95-8.19-6.57-.86-.45-1.61.85-.76,1.3h0Z"/>
  <path class="cls-1" d="m142.98,185.87c-.25.93-.81,1.72-1.2,2.59-.42.94-.64,1.96-.32,2.97.69,2.17,3.17,3.14,5.17,2.08.85-.45.1-1.75-.76-1.3-1.28.68-2.88-.14-3.06-1.58-.09-.73.25-1.44.58-2.07.39-.74.81-1.47,1.03-2.29.25-.93-1.2-1.33-1.45-.4h0Z"/>
  <path class="cls-1" d="m144.38,193.82c2.32.34,4.19,1.76,6.07,3.06s3.72,2.66,5.8,3.6c3.39,1.52,7.61,1.55,10.09-1.59,1.44-1.82,2.48-4.02,3.65-6.03,1.25-2.16,2.5-4.31,3.76-6.47,1.12-1.94,2.4-3.88,2.8-6.12.19-1.07.22-2.17.46-3.23.25-1.12.7-2.17,1.14-3.22,2.05-4.97,1.66-10.04.99-15.25l-1.28.53c1.96,1.56,3.23,3.64,3.7,6.1l1.45-.4c-.92-4.18-1.71-8.32-1.62-12.62.08-3.66.5-7.34-.02-10.98-.23-1.65-.67-3.25-1.4-4.75-.86-1.75-3.01-3.65-1.55-5.61.93-1.24,1.65-2.02,1.5-3.68-.05-.49-.25-1.07-.05-1.55.3-.71.58-.57.92-.02s.6.98,1.14,1.32,1.29-.23,1.1-.85c-1.7-5.46-3.75-10.87-6.33-15.97-1.11-2.2-2.45-3.71-4.62-4.89-1.42-.77-2-1.67-1.57-3.32.32-1.24.82-2.4,1.04-3.66.79-4.36-.15-9-2.57-12.71-.57-.87-1.22-1.7-1.94-2.45-.83-.86-2.25-1.66-2.56-2.88s-.03-2.55-.36-3.8c-.29-1.1-.81-2.15-1.45-3.09-3.27-4.78-9.21-6.53-12.75-11.02-.6-.76-1.65.31-1.06,1.06,3.11,3.95,8.04,5.7,11.41,9.35.86.94,1.64,2.01,2.11,3.2.55,1.37.4,2.67.56,4.09.24,2.21,2.33,3.27,3.65,4.83,3.06,3.61,4.4,8.74,3.44,13.38-.42,2.01-1.84,4.28-.89,6.33.41.88,1.19,1.44,2.02,1.9,1.19.66,2.23,1.28,3.05,2.4,1.8,2.5,2.93,5.66,4.09,8.49,1.23,3,2.32,6.06,3.28,9.16l1.1-.85c-.63-.41-.76-1.31-1.39-1.77-.51-.37-1.15-.45-1.73-.18-1.97.94-.77,3.01-1.15,4.55-.22.89-1.11,1.48-1.57,2.25-.42.69-.59,1.48-.45,2.29.34,2.04,2.04,3.64,2.74,5.56,1.49,4.08.93,8.58.78,12.82-.17,4.81.62,9.39,1.64,14.07.21.95,1.63.54,1.45-.4-.51-2.68-1.94-5.06-4.08-6.76-.43-.34-1.37-.19-1.28.53.54,4.23,1.12,8.67-.17,12.83-.62,1.99-1.69,3.81-2.02,5.89-.36,2.23-.59,4.11-1.71,6.12-2.17,3.91-4.49,7.74-6.74,11.61-1.1,1.9-2.11,4-4.35,4.71-2,.63-4.18.15-6.02-.73-2.06-.98-3.92-2.39-5.79-3.68s-3.75-2.62-6.05-2.95c-.94-.14-1.35,1.31-.4,1.45h0Z"/>
  <path class="cls-1" d="m24.19,74.67c-1.16.3-2.31.59-3.47.9-.73.2-1.48.45-1.76,1.23-.25.7.03,1.4.19,2.09.24,1,.26,2.06.09,3.08-.31,1.89-1.27,3.68-2.71,4.95s-3.14,1.64-3.89,3.51c-.81,2.01-.93,4.4-1.29,6.52-.44,2.54-.87,5.07-1.31,7.61-.77,4.47-1.5,8.98-2.83,13.33-.68,2.2-1.51,4.35-2.59,6.39s-2.44,3.66-3.42,5.62c-2.16,4.29-.85,9.03-.42,13.56.24,2.54.34,5.09.32,7.64-.03,2.19-.42,4.26,1,6.1s2.85,3.48,4.28,5.21c.62.75,1.22,1.49,2.03,2.03.93.62,1.72,1.03,2.17,2.12.81,1.94.97,3.9,2.26,5.66,1.19,1.62,2.8,2.88,4.45,4,4.19,2.86,8.91,5.19,12.42,8.92l-.12-.91c-.34.66-.68,1.32-1.02,1.99-.25.49.05,1.13.65,1.13,3.81-.03,7.62-.07,11.43-.1.7,0,1.08-1.07.38-1.4-1.41-.65-1.46-2.38-.84-3.63.67-1.36,1.88-2.3,2.76-3.5.79-1.08.88-2.2.34-3.43-.73-1.64-1.84-3.16-2.77-4.7-.5-.83-1.8-.07-1.3.76s1,1.66,1.5,2.49c.46.76,1.27,1.73,1.4,2.63.16,1.12-.87,1.92-1.53,2.66-.51.58-1.02,1.17-1.43,1.83-1.22,1.96-1.31,5.06,1.09,6.18l.38-1.4c-3.81.03-7.62.07-11.43.1l.65,1.13c.34-.66.68-1.32,1.02-1.99.16-.31.12-.66-.12-.91-2.9-3.08-6.63-5.22-10.16-7.48-3.19-2.05-6.8-4.14-7.88-8.04-.41-1.47-.68-3.09-1.8-4.21-.6-.61-1.42-.89-2.08-1.43-.89-.74-1.58-1.78-2.31-2.67s-1.41-1.71-2.11-2.57c-.78-.95-1.73-1.82-1.87-3.09-.13-1.14.04-2.34.05-3.49.01-1.23,0-2.47-.05-3.7-.09-2.37-.32-4.73-.63-7.08s-.68-4.6-.32-6.88,1.74-4.21,3-6.16c1.09-1.69,2-3.48,2.76-5.34,1.62-3.95,2.55-8.14,3.32-12.33.84-4.57,1.59-9.16,2.37-13.74.4-2.33.33-5.25,2.6-6.55,1.63-.94,2.98-2.15,3.9-3.81.86-1.54,1.33-3.32,1.29-5.08-.02-.86-.6-2.28-.19-2.97.36-.6,1.19-.63,1.85-.8l2.08-.54c.93-.24.54-1.69-.4-1.45h0Z"/>
  <path class="cls-1" d="m77.98,181.78c10.74,4.78,23.05,5.4,34.2,1.64.91-.31.52-1.76-.4-1.45-10.75,3.63-22.67,3.13-33.04-1.49-.87-.39-1.64.9-.76,1.3h0Z"/>
  <path class="cls-1" d="m77.86,180.27c5.37-.58,10.76-1,16.16-1.26,2.62-.13,5.24-.21,7.85-.26s5.56-.47,8.02.42c.91.33,1.3-1.12.4-1.45-2.32-.84-5.02-.53-7.44-.49-2.78.04-5.57.13-8.35.26-5.56.26-11.11.69-16.65,1.29-.95.1-.96,1.6,0,1.5h0Z"/>
  <path class="cls-1" d="m18.98,98.8c-2.67,3.14-5.39,6.37-7,10.21-1.81,4.35-1.38,8.9-1.56,13.5s-1.81,9.14-.02,13.57c.89,2.2,1.78,4.1,1.72,6.53-.06,2.54-.84,5.02-1.6,7.43-.29.92,1.16,1.32,1.45.4,1.31-4.18,2.47-8.55.73-12.79-.91-2.22-1.73-4.11-1.67-6.58.05-2.25.55-4.45.77-6.68.46-4.61-.36-9.36,1.19-13.83,1.41-4.08,4.3-7.46,7.06-10.7.62-.73-.43-1.8-1.06-1.06h0Z"/>
  <path class="cls-1" d="m21.98,130.4c-.43,3.07-.35,6.15.34,9.17.75,3.31,2.41,6.16,1.79,9.65-.51,2.91-1.57,5.62-1.51,8.61s.87,5.65,2.49,8.02c.54.79,1.84.04,1.3-.76-1.64-2.39-2.38-5.19-2.28-8.08s1.28-5.59,1.62-8.46-.82-5.35-1.61-8.07c-.91-3.14-1.13-6.45-.68-9.69.13-.94-1.31-1.35-1.45-.4h0Z"/>
  <path class="cls-1" d="m160.26,90.53c.75,2.65,1.5,5.31,1.65,8.08s-.16,5.58-.41,8.36c-.5,5.45-1.03,10.91-1.58,16.35-.1.96,1.4.95,1.5,0,.57-5.61,1.11-11.23,1.62-16.84.25-2.78.54-5.57.33-8.36s-.93-5.36-1.67-7.98c-.26-.93-1.71-.53-1.45.4h0Z"/>
  <path class="cls-1" d="m162.48,164.96c-.96,5.32-4.74,9.74-4.96,15.25-.04.97,1.46.96,1.5,0,.21-5.33,3.97-9.68,4.91-14.85.17-.94-1.28-1.35-1.45-.4h0Z"/>
  <path class="cls-1" d="m168.72,174.31c-2.23,2.68-4.25,5.54-6.03,8.54-.49.83.8,1.59,1.3.76,1.71-2.89,3.65-5.65,5.79-8.24.26-.31.31-.76,0-1.06-.27-.27-.8-.31-1.06,0h0Z"/>
  <path class="cls-1" d="m129.48,85.66c.19-1.49-.41-3.07-1.5-4.1-.29-.27-.78-.3-1.06,0s-.3.77,0,1.06c.11.11.22.22.32.34.02.03.05.06.07.09.07.08-.07-.11-.02-.02.05.07.1.14.14.21.08.13.16.27.23.41.02.03.03.07.05.1,0,.02.06.13.02.04s0,.02.01.04c.02.04.03.09.05.13.05.14.09.28.12.43.02.08.04.16.05.24,0,.04.01.07.02.11.02.11-.01-.14,0-.03.02.33.03.64-.01.97-.05.39.38.77.75.75.45-.02.7-.33.75-.75h0Z"/>
  <path class="cls-1" d="m58.4,80.29c-1.15.55-1.63,1.75-1.94,2.91-.17.63-.34,1.27-.49,1.91-.17.69-.07,1.19.21,1.83.25.59.53,1.17.83,1.73s.61,1.22,1.05,1.69c.38.4.95.6,1.43.84.63.31,1.23.62,1.95.63,1.23.02,2.58-.4,3.66-.98.49-.26,1.04-.53,1.41-.95.43-.48.62-1.19.81-1.79.42-1.35.28-2.66-.15-3.99-.19-.59-.44-1.17-.72-1.72s-.58-1.09-1.16-1.36-1.33-.32-1.97-.5c-.68-.2-1.35-.45-2.04-.61-.65-.16-1.41-.33-2.08-.14s-1.06.69-1.38,1.27c-.34.61.22,1.21.85,1.1.52-.09,1.05-.14,1.58-.15l-.38-1.4c-.78.4-1.55.83-2.29,1.31s-.25,1.51.58,1.37c1.08-.19,2.17-.38,3.25-.57l-.58-1.37c-1.17.78-2.42,1.45-3.73,1.97l.73,1.25c.53-.57,1.32-.89,2.04-1.17.76-.29,1.55-.51,2.35-.66l-.92-.52.02.11.08-.58c-.16.37-.75.67-1.09.86-.48.28-.98.5-1.48.72-.85.37-2.19.7-2.69,1.56-.28.48-.23,1.11.19,1.5.17.16.38.25.6.32.06.02.24.1.3.08h.04c-.14-.28-.22-.3-.25-.06-.26.41-.05,1.15.16,1.53.28.51.75.86,1.22,1.19.42.3.68.53.85,1.01.23.62.74.69,1.32.69,1.24-.02,2.36-.08,3.5-.6,1.8-.82,4.59-2.71,3.07-4.97-.36-.54-.71-1.06-1.02-1.64s-.63-1.1-1.07-1.55c-.87-.89-2.24-1.28-3.35-.59-.6.37-.4,1.45.38,1.4.06,0,.99-.05.99-.06l-.34-.28v.15c-.02.11.03.28.04.39.06.49.16.97.43,1.38.29.44.69.66,1.14.89s.49.57.56,1.05c.07.45.03.81-.37,1.08-.43.29-.99.5-1.49.64-.53.15-1.08.06-1.62.16-.57.1-1.03.4-1.35.88-.38.58.25,1.24.85,1.1,1.19-.27,2.34-.73,3.36-1.39.86-.55,2.34-1.48,1.87-2.71-.13-.35-.52-.68-.92-.52-1.01.39-2.1.72-3.03,1.28-.82.49-1.58,1.45-2.61,1.44l.72.95c.18-.49,1.13-.83,1.56-1.04.65-.31,1.33-.57,2-.84,1.18-.48,2.66-.94,2.85-2.38.05-.37-.39-.79-.75-.75-1.35.15-2.76.63-3.99,1.18-.64.29-1.22.66-1.77,1.1-.49.39-.93.83-1.57.93l.95.72c.05-.55.92-.91,1.33-1.12.72-.36,1.47-.64,2.23-.89.67-.22,1.43-.36,2.06-.69s1.11-1.1.59-1.72c-.46-.56-1.46-.43-2.1-.34-.71.1-1.4.34-2.02.7s-1.15.95-1.78,1.36-1.38.62-2.16.63l.75.75c.1-1.19,1.64-1.53,2.58-1.73,1.2-.26,2.48-.52,3.34-1.47.37-.41.24-1.11-.33-1.25-2.46-.62-4.12,1.39-5.7,2.91-.7.67.37,1.73,1.06,1.06,1.11-1.07,2.46-2.97,4.24-2.52l-.33-1.25c-.95,1.05-2.64.96-3.89,1.41s-2.35,1.42-2.46,2.85c-.03.4.37.75.75.75,1.39-.02,2.6-.53,3.66-1.4.52-.43,1.01-.85,1.65-1.1.27-.1.57-.18.86-.22.17-.02.34-.03.51-.04h.18c.24.05.24,0,.01-.16l-.08-.58c-.02.1-.54.21-.7.26-.37.11-.74.23-1.1.35-.7.23-1.39.5-2.06.8-1.19.53-2.46,1.23-2.6,2.66-.05.54.52.79.95.72,1.28-.19,2.13-1.37,3.23-1.95.56-.29,1.16-.51,1.77-.69s1.29-.44,1.94-.51l-.75-.75c-.04.32-1.1.66-1.34.76-.64.28-1.3.52-1.94.79-1.15.49-2.61,1.05-3.08,2.3-.18.47.27.94.72.95,1.17.02,2.01-.68,2.91-1.33s2.07-1.03,3.14-1.44l-.92-.52c.12.32-1.48,1.21-1.77,1.36-.76.41-1.57.7-2.41.89l.85,1.1c.15-.23.55-.19.79-.2.34,0,.68-.03,1.01-.09.63-.13,1.26-.41,1.84-.7,1.27-.64,1.57-1.82,1.29-3.14-.13-.6-.33-1.15-.84-1.51-.4-.28-.94-.35-1.11-.86s0-1.16-.32-1.63c-.44-.65-1.28-.45-1.95-.41l.38,1.4c.72-.45,1.46.19,1.87.77.54.77.94,1.63,1.47,2.4.23.34.4.58.19.96-.2.36-.5.71-.81.97-.66.59-1.71,1.08-2.57,1.3-.47.12-.96.13-1.44.14-.2,0-.41,0-.61,0,.03,0-.34,0-.34,0,0-.03.58.64.36.06-.33-.9-1.15-1.24-1.82-1.85-.38-.34-.35-.53-.24-.99s.03-.94-.35-1.26c-.13-.11-.28-.19-.45-.25-.05-.02-.43-.16-.47-.13-.05.03.21.34.25.34.07,0,.19-.11.26-.14.22-.11.45-.22.67-.32.86-.39,1.74-.71,2.56-1.17.77-.43,1.94-1.11,1.75-2.13-.08-.42-.55-.59-.92-.52-.93.17-1.83.44-2.7.8s-1.71.74-2.35,1.41c-.47.5,0,1.55.73,1.25,1.44-.57,2.8-1.26,4.09-2.12.73-.49.26-1.52-.58-1.37-1.08.19-2.17.38-3.25.57l.58,1.37c.74-.47,1.5-.91,2.29-1.31.67-.34.35-1.42-.38-1.4-.67.02-1.32.09-1.98.2l.85,1.1c.19-.35.32-.6.75-.6.46,0,.94.13,1.38.26.92.26,1.82.61,2.77.79.38.07.68.07.89.42.27.44.5.92.69,1.41.34.89.66,1.91.5,2.87-.09.51-.27,1.02-.45,1.5s-.44.64-.86.88c-.86.49-1.71.77-2.69.94-.46.08-.88.09-1.31-.11-.47-.21-.99-.44-1.44-.71-.31-.19-.46-.55-.64-.86-.26-.44-.51-.89-.73-1.35-.2-.4-.6-1.01-.6-1.47,0-.51.28-1.11.4-1.6.24-.95.42-2.11,1.39-2.57.87-.42.11-1.71-.76-1.3h0Z"/>
  <path class="cls-1" d="m117.13,87.33c-.09.62.02,1.14.38,1.66s.81.86.99,1.49.43,1.07.94,1.45c.56.41,1.22.77,1.89.96,1.38.39,2.75-.08,3.97-.74s1.69-1.81,2.26-3.06c.31-.67.62-1.33.93-2s.72-1.35.89-2.07c.36-1.51-.92-2.28-2.15-2.71-1.34-.47-2.79-.56-4.2-.45-1.29.1-2.75.26-3.96.75s-1.94,1.73-1.72,3.07c.11.66.4,1.27.55,1.92.16.73.23,1.47.4,2.2.14.62.36,1.25.73,1.77.41.57.97.88,1.61,1.14.57.23,1.14.52,1.72.7.66.21,1.29.17,1.95-.01,1.14-.31,2.32-.75,3.07-1.7.39-.49.63-1.05.87-1.62.29-.69.59-1.37.84-2.08.23-.64.44-1.29.58-1.96.15-.74.06-1.29-.54-1.8-.72-.6-2.65-1.69-3.26-.42-.34.7.3,1.11.24,1.77-.07.76-.37,1.59-.58,2.32-.19.64-.42,1.28-.83,1.82-.47.61-1.13.84-1.78,1.21-.19.11-.61.51-.84.5-.06,0,.05.03.05.04-.04-.18.05-.35.16-.49.37-.49,1.14-.61,1.68-.79.63-.21,1.28-.48,1.74-.99.5-.56.66-1.26.76-1.99.05-.38-.06-.73-.43-.88-.32-.13-.77-.03-.94.31-.47.97-.96,1.93-1.47,2.87-.14.25-.27.5-.41.75l-.1.19c-.22.31-.09.3.39-.02-.03-.08-.65-.22-.75-.25-.22-.07-.49-.12-.69-.25l.34.45c-.02.31,0,.31.04.02.03-.14.07-.29.1-.43.18-.79-.99-1.38-1.37-.58-.04.08-.26.39-.25.46,0,.02.21.3.27.29l-.53-1.28c-.13.12-.26.23-.41.33-.05.04-.11.08-.17.12-.17.1-.11.09.18-.02l.65.37c.09.18.01.03.06-.11.04-.12.07-.23.16-.33.14-.16.41-.31.62-.24l-.52-.52c.04-.19.04-.23,0-.11-.03.07-.07.14-.11.2-.09.12-.21.19-.34.27l1.13.65c-.04-.44.22-.71.6-.9.3-.15.83-.39,1.15-.21l-.27-1.03c-.38.52-.98.81-1.62.84l.75.75c-.03-.56.81-1.22,1.35-1.24l-.53-.22c-.03-.32-.08-.37-.14-.17-.05.09-.11.17-.19.24-.11.13-.24.25-.38.36s-.27.19-.42.27c-.09.05-.19.1-.29.15-.22.04-.22.08,0,.1l.34.45s.36-.44.42-.5c.17-.18.36-.33.57-.45s.43-.22.66-.29c.28-.08.33.04.17-.33-.34-.77-.18.22-.24.19-.01,0,.43-.33.49-.36.26-.14.53-.26.81-.37.62-.25,1.27-.43,1.92-.56l-.85-1.1c-.15.3-.34.54-.61.74-.2.15-.61.46-.88.43l.53.22c.04.29.1.35.16.17.04-.08.09-.15.15-.21.11-.13.24-.22.38-.31s.3-.16.46-.22c.07-.03.47-.14.41-.15l-.45-.34.06.07.12-.91c-.3.34-.93.98-1.43.94l.53.22c.04.51.09.6.16.29l.06-.16c.07-.18.17-.35.28-.52.2-.32.47-.57.76-.81l-1.25-.73.32-.19.75.75c.05-.49.22-1.09-.22-1.45-.36-.29-.91-.25-1.32-.1-.46.17-.8.57-.83,1.07s.27.8.52,1.06l-.22-.53c.12-.22.13-.29.03-.21l1.1.85c.1-.34.14-.68.16-1.03.02-.53-.67-.99-1.13-.65-.68.51-1.16,1.17-1.29,2.03-.11.68.69,1.33,1.25.73.61-.65,1.15-1.37,1.59-2.14.35-.6-.4-1.5-1.03-1.03-.57.42-.6,1.04-.96,1.6-.4.62-.85,1.26-1.42,1.73s-1.22.79-1.86,1.11c-.73.37-1.44.71-2.28.63l.53,1.28c.63-.51,1.3-.96,2-1.36s1.42-.78,2.23-.8l-.38-1.4c-.36.26-.74.49-1.14.68-.17.08-.34.15-.52.21-.12.04-.24.08-.36.12-.24.06-.24.07-.01.03l.45.34c.16.34.06.09.14-.14.06-.16.13-.31.22-.46.16-.24.36-.44.59-.61.28-.2.62-.33.96-.39.07-.01.31,0,.36-.04.24-.01.18-.22-.17-.62-.08.08-.17.16-.27.23-1.1.89-2.46,1.58-3.83,1.94-.12.03-.49.04-.58.09h-.13c.07.16.14.34.21.51.03.01.66-.69.73-.75.52-.45,1.12-.83,1.76-1.09.27-.11.56-.21.85-.28.18-.05.36-.09.56-.09.04,0,.43.06.45.05l-.07-.2c-.02-.22-.06-.27-.12-.13-.09.03-.19.21-.29.27-.3.18-.66.19-.98.09-.09-.03-.19-.05-.27-.11.19.16.09.1.3-.06s.48-.25.74-.32c.13-.04.38-.05.49-.12h.13c-.02-.08-.04-.16-.07-.23.02,0-.65.6-.72.64-.58.38-1.21.75-1.85,1.02-.36.15-.75.28-1.14.33-.08.01-.35,0-.39.02-.18-.01-.12.09.18.31.08-.09.16-.17.24-.25.45-.42,1.01-.73,1.58-.96.27-.11.55-.21.83-.3.36-.11.86-.16,1.19-.34l.17-.04c-.21-.57-.34-.73-.41-.47-.06.04-.11.22-.16.29-.18.23-.48.42-.75.53-.06.02-.44.16-.47.12-.15-.19.4-.47.51-.52.35-.16.74-.23,1.13-.22.14,0,.37.08.5.07l.11.04c.22-.37.22-.53,0-.47-.11-.06-.51.03-.64.03-.28.01-.57.02-.85.02-.42,0-.85,0-1.27-.01-.21,0-.42-.01-.63-.03-.19-.01-.45-.1-.63-.08l-.2-.06c0,.58.14.75.41.51.23-.05.42-.21.67-.25.26-.04.45.11.19-.21-.07-.22-.15-.25-.24-.09-.08.08-.16.16-.25.24-.32.25-.69.37-1.08.44l.92.92c.09-.37.46-.55.77-.73.41-.24.85-.45,1.3-.62s.84-.23,1.32-.19c.43.04.76.03,1.16-.16.87-.43.11-1.72-.76-1.3-.11.06-.39-.05-.51-.06-.31-.03-.61,0-.91.06-.57.11-1.11.34-1.63.59-.9.42-1.92.97-2.18,2-.15.59.36,1.03.92.92,1.06-.2,3.31-1.51,2.33-2.86-.8-1.12-3.59-.2-3.68,1.13-.06.89.85,1.15,1.55,1.24.87.11,1.76.1,2.64.09.71-.01,1.78.11,2.34-.42s.39-1.48-.24-1.9c-1.14-.76-3.21-.37-4.1.63-.48.53-.65,1.36-.27,2s1.14.81,1.83.67c.64-.13,1.3-.53,1.74-1.02s.88-1.37.41-1.98c-.5-.65-1.33-.35-1.98-.16-.71.2-1.41.43-2.09.74-.95.44-3.31,1.94-2.08,3.2.52.53,1.38.42,2.03.28.81-.17,1.57-.55,2.29-.95.97-.54,3.31-1.97,1.96-3.31-.98-.96-3.07-.12-3.8.79-1.2,1.5.73,2.62,2.1,2.44.71-.09,1.36-.47,1.76-1.07s.37-1.38-.3-1.79c-1.25-.76-3.19.12-4.28.8-.86.53-3.33,2.32-1.84,3.39.63.45,1.52.25,2.21.04.75-.23,1.48-.53,2.17-.9.86-.45,3.77-1.99,2.32-3.22-.53-.45-1.39-.31-2-.11-.72.23-1.36.65-1.84,1.23-.42.53-.82,1.3-.78,2,.06.95.99.93,1.67.7.75-.25,1.46-.61,2.11-1.07.56-.4.42-1.42-.38-1.4-1.95.06-3.83,1.41-5.29,2.6-.56.45-.04,1.23.53,1.28.88.08,1.7-.2,2.49-.57.72-.34,1.45-.7,2.1-1.16s1.21-1.04,1.7-1.7c.23-.31.47-.62.66-.96.1-.16.18-.34.25-.51.02-.05.23-.51.07-.39l-1.03-1.03c-.39.67-.83,1.28-1.36,1.84l1.25.73c.07-.44.23-.85.6-1.13l-1.13-.65c-.01.23-.05.41-.11.63-.17.59.55,1.24,1.1.85.34-.25.69-.56.71-1.01.01-.23-.07-.43-.22-.6-.49-.54.09.54-.26.27l-.37-.65c.03.27-.04.58-.07.86-.04.37.38.8.75.75.56-.07.98-.33,1.12-.91.2-.77-.69-1.19-1.25-.73-.5.41-.92.92-1.21,1.49-.25.5-.57,1.19-.19,1.69.8,1.08,2.59-.35,3.17-1.02.2-.23.32-.64.12-.91-.56-.75-1.46-.41-2.19-.07s-1.43.95-1.63,1.75c-.1.4-.04.85.29,1.13.4.35.9.25,1.34.05.82-.37,1.56-.92,1.97-1.74.3-.6-.19-1.23-.85-1.1-1.02.21-2,.54-2.93,1-.75.37-1.65,1.11-1.33,2.06.35,1.05,1.63.97,2.39.46s.91-1.75-.09-2.13c-.79-.29-1.86.21-2.49.66s-1.5,1.29-1.48,2.13c.03,1.25,1.43.95,2.15.57s1.57-1.08,1.8-1.91c.13-.45.03-.96-.37-1.23-.45-.32-1.03-.1-1.49.11-.93.43-1.87,1.37-1.82,2.47.02.39.33.77.75.75,1.2-.05,2.2-.62,2.91-1.58.24-.32.05-.84-.27-1.03-1.56-.89-4.15.55-4.01,2.4.04.55.61.95,1.13.65.55-.32,1.02-.84,1.17-1.48.19-.81-.51-1.22-1.22-1.14-1.3.14-2.55,1.65-1.87,2.95.12.24.39.36.65.37.55.02,1.08-.53,1.46-.87.47-.42.11-1.33-.53-1.28-1.09.08-2.06,1.19-1.3,2.23.33.45.91.61,1.43.45.57-.17.91-.67,1.15-1.17l-1.37-.58c-.19.82-.34,1.5.6,1.84.59.21,1.57.74,2.19.41.31-.16.46-.51.62-.8.21-.38.41-.75.62-1.13.44-.82.86-1.65,1.26-2.49l-1.37-.58c-.06.46-.1,1.02-.43,1.38s-.84.49-1.28.62c-.99.3-2.01.69-2.48,1.68-.42.89-.18,2.14.9,2.38.48.11.95-.04,1.36-.28.48-.28.95-.55,1.44-.81,2.01-1.1,2.49-3.47,2.97-5.52.13-.54.19-1.09-.02-1.61-.04-.1-.08-.23-.15-.32l-.08-.13-.3.55c.04.08.71.26.83.34.14.09.48.26.54.42-.09-.22-.07.05-.09.11-.05.12-.06.27-.09.4-.16.63-.36,1.24-.59,1.85-.21.55-.43,1.08-.66,1.62-.21.48-.41,1-.78,1.39-.6.64-1.77,1.07-2.63,1.16-.53.06-1.02-.22-1.49-.43s-1.03-.34-1.45-.66c-.86-.66-.89-2.2-1.06-3.18-.09-.54-.22-1.05-.39-1.57-.18-.54-.42-1.12-.12-1.67.25-.46.74-.61,1.22-.73.59-.15,1.2-.25,1.81-.35,1.15-.18,2.35-.25,3.5-.07.56.09,1.11.23,1.63.45s.96.4.74,1.02c-.48,1.31-1.19,2.58-1.78,3.85-.26.56-.48,1.29-.94,1.73-.41.39-1.06.65-1.59.84-.6.21-1.2.31-1.82.14-.49-.14-1.3-.47-1.62-.91-.15-.21-.17-.53-.26-.77-.09-.28-.23-.52-.4-.76-.22-.3-.94-.85-.88-1.27s-.1-.8-.52-.92c-.35-.1-.86.12-.92.52h0Z"/>
  <path class="cls-1" d="m74.11,40l-6.61-6.28c-.7-.66-1.76.39-1.06,1.06l6.61,6.28c.7.66,1.76-.39,1.06-1.06h0Z"/>
  <path class="cls-1" d="m89.24,32.6c-.23-4.44-1.03-8.84-2.4-13.07-.3-.91-1.75-.52-1.45.4,1.33,4.11,2.13,8.36,2.35,12.67.05.96,1.55.97,1.5,0h0Z"/>
  <path class="cls-1" d="m97.92,32.84c4.3-3.73,8.47-7.6,12.5-11.61.69-.68-.38-1.74-1.06-1.06-4.03,4.01-8.2,7.89-12.5,11.61-.73.63.33,1.69,1.06,1.06h0Z"/>
  <path class="cls-1" d="m108.78,38.23c6.1-1.49,12.36-2.13,18.64-1.92.97.03.96-1.47,0-1.5-6.41-.22-12.81.45-19.04,1.97-.94.23-.54,1.68.4,1.45h0Z"/>
  <path class="cls-1" d="m67.81,45.47c-4.81-1.85-9.89-2.88-15.04-3.08-.97-.04-.96,1.46,0,1.5,5.02.19,9.96,1.22,14.64,3.02.9.35,1.29-1.1.4-1.45h0Z"/>
  <path class="cls-1" d="m39.8,101.75c-.31.97-.81,1.69-1.59,2.34l1.28.53c-.11-1.2-.07-2.36.15-3.55.11-.58-.33-1.04-.92-.92-1.49.29-2.99.58-4.48.87-.32.06-.82.28-1.12.22-.52-.11-.32-.28-.28-.74.07-.72.42-1.47.58-2.18.22-.97.22-1.71-.52-2.43-.51-.5-.82-.66-.97-1.4-.1-.5-.17-1.02-.41-1.48-.52-1-1.56-1.39-2.3-2.18-.87-.92-.94-2.26-.94-3.46,0-2.78-.06-5.22-1.17-7.83-.38-.89-1.67-.12-1.3.76.69,1.62,1.02,3.34,1.01,5.1,0,1.25-.12,2.51.07,3.76.18,1.14.64,2.19,1.51,2.96.46.41,1.03.69,1.45,1.15.54.59.52,1.23.7,1.96.11.43.27.86.56,1.2.17.19.48.31.63.5.45.59.27.84.12,1.44-.27,1.02-1.07,2.63-.55,3.67s1.75.74,2.66.56c1.72-.33,3.43-.67,5.15-1l-.92-.92c-.24,1.32-.32,2.62-.2,3.95.06.67.77.96,1.28.53.96-.81,1.6-1.81,1.98-3.01.29-.92-1.16-1.32-1.45-.4h0Z"/>
  <path class="cls-1" d="m149.01,93.13c2.08-2.41,1.74-5.71,2.01-8.67.04-.4-.37-.75-.75-.75-.44,0-.71.35-.75.75-.23,2.47.17,5.58-1.57,7.6-.26.31-.3.76,0,1.06.27.27.8.31,1.06,0h0Z"/>
  <path class="cls-1" d="m78.81,179.74c1.02-.14,2.02.07,3.03.13.9.06,1.75-.04,2.64-.19,1.82-.31,3.64-.68,5.45-1.06s3.73-.75,5.66-.82c2.09-.08,4.18.01,6.27-.05.96-.03.97-1.53,0-1.5-2.09.06-4.18-.03-6.27.05-1.92.07-3.78.39-5.66.79s-3.89.82-5.85,1.14-3.77-.21-5.66.06c-.95.13-.55,1.58.4,1.45h0Z"/>
  <path class="cls-1" d="m72.96,186.67c.07,1.36.22,2.8,1.3,3.76.4.35.92.61,1.46.65.81.07,1.59-.28,1.52.92-.02.29.24.68.55.72.79.11,1.37-.07,2.13-.3.52-.16.82-.19,1.32.03.31.14.52.31.88.31.62.02,1-.39,1.51-.66.88-.45,1.41.31,2.3.43.74.1,1.44-.12,2.13-.35,1.09-.36,1.77-.46,2.88-.19.81.19,1.5.21,2.31-.01.51-.14.99-.39,1.51-.49.65-.13,1.19.05,1.82.18.93.19,1.71.07,2.62-.19.46-.13.91-.32,1.39-.35.66-.04,1.25.24,1.88.33.27.04.54.05.81.02.38-.05.87-.45,1.21-.46.45-.01.88.65,1.48.76.71.13,1.34-.14,1.97-.44.78-.36,1.25-.53,2.11-.35.39.08.76.19,1.15.25,1.92.29,3.01-.99,4.58-1.82.85-.45.1-1.74-.76-1.3-.77.41-1.42,1.03-2.2,1.41-1.01.5-1.93.04-2.96-.1-.68-.09-1.29-.04-1.92.23-.58.24-1.02.69-1.66.51-.43-.12-.51-.38-.89-.57-.5-.27-1.02-.15-1.52.06-1.08.45-1.83.04-2.9-.02-.92-.05-1.71.32-2.58.52-1.02.23-1.85-.14-2.86-.21-.83-.05-1.54.22-2.31.47-1.16.37-1.87,0-3.01-.14-1.57-.19-3.24,1.29-4.68.54-.6-.31-1.06-.62-1.77-.46-.52.12-.86.63-1.34.76-.55.15-1.27-.46-1.93-.4-.77.07-1.52.65-2.3.54l.55.72c.05-.92-.1-2.1-1.1-2.46-.7-.25-1.51.24-2.18-.09-.94-.47-.95-1.9-.99-2.78-.05-.96-1.55-.97-1.5,0h0Z"/>
  <path class="cls-1" d="m116.27,189.64c.14-.03.27-.05.41-.08.07-.01.15-.02.22-.04.04,0,.23-.04.05,0,.26-.05.53-.06.79-.07.54-.03,1.09-.03,1.63.02.39.03.77-.37.75-.75-.02-.43-.33-.72-.75-.75-1.17-.09-2.35,0-3.5.23-.38.08-.64.55-.52.92.13.41.51.61.92.52h0Z"/>
  <path class="cls-1" d="m73.63,185.43c-.11.03-.21.06-.32.07l.2-.03c-.18.02-.35.02-.53,0l.2.03c-.2-.03-.39-.08-.58-.16l.18.08c-.16-.07-.32-.16-.46-.27l.15.12c-.14-.11-.27-.23-.38-.37l.12.15c-.06-.08-.11-.16-.16-.25-.19-.34-.69-.48-1.03-.27s-.47.66-.27,1.03c.62,1.12,2.05,1.7,3.27,1.32.37-.12.65-.53.52-.92s-.52-.65-.92-.52h0Z"/>
  <path class="cls-1" d="m77.5,180.83l.66.16c.1.03.2.04.3.01.1,0,.19-.03.28-.09.09-.05.16-.11.21-.19.07-.07.11-.16.13-.26l.03-.2c0-.14-.03-.26-.1-.38l-.12-.15c-.09-.09-.2-.16-.33-.19l-.66-.16c-.1-.03-.2-.04-.3-.01-.1,0-.19.03-.28.09-.09.05-.16.11-.21.19-.07.07-.11.16-.13.26l-.03.2c0,.14.03.26.1.38l.12.15c.09.09.2.16.33.19h0Z"/>
  <path class="cls-1" d="m109.91,179.72c-2.49.7-5.06.73-7.62.77s-5.35.02-8.02-.05-5.12-.34-7.67-.27-5.09.25-7.7-.33c-.94-.21-1.34,1.23-.4,1.45,2.51.56,4.93.56,7.48.42,2.75-.16,5.54.16,8.3.24s5.51.09,8.27.05,5.24-.1,7.78-.82c.93-.26.53-1.71-.4-1.45h0Z"/>
  <path class="cls-1" d="m22.44,76.85c2.12-1.45,4.07-3.15,5.77-5.07.27-.3.3-.76,0-1.06-.27-.27-.79-.3-1.06,0-1.62,1.83-3.45,3.46-5.47,4.83-.33.23-.48.66-.27,1.03.19.33.69.5,1.03.27h0Z"/>
  <path class="cls-1" d="m143.84,184.63c-1.39-1.71-2.3-3.84-2.57-6.03-.05-.4-.31-.75-.75-.75-.37,0-.8.35-.75.75.32,2.62,1.35,5.04,3.01,7.09.26.31.8.27,1.06,0,.31-.31.26-.75,0-1.06h0Z"/>
  <path class="cls-1" d="m62.41,76.33c1.93-.69,4.05-.57,5.87.38l.58-1.37c-2.98-.78-6.19-.58-9.03.62-.37.16-.64.5-.52.92.1.35.55.68.92.52,2.61-1.1,5.49-1.34,8.23-.62.8.21,1.35-.97.58-1.37-2.16-1.13-4.73-1.35-7.03-.53-.9.32-.51,1.77.4,1.45h0Z"/>
  <path class="cls-1" d="m116.57,79.47c3.71-1.5,7.66-2.22,11.67-2.04,4.24.2,8.19,1.59,12.13,3.08.9.34,1.29-1.11.4-1.45-4.07-1.54-8.15-2.93-12.53-3.13-4.12-.19-8.25.54-12.07,2.09-.88.36-.5,1.81.4,1.45h0Z"/>
  <path class="cls-1" d="m118.14,77.15c-2.99.53-5.93,1.34-8.78,2.4-.38.14-.64.51-.52.92.1.36.54.67.92.52,2.85-1.06,5.78-1.87,8.78-2.4.4-.07.62-.56.52-.92-.12-.42-.52-.6-.92-.52h0Z"/>
  <path class="cls-1" d="m57.71,78.93c5.02-.57,10.09-.33,15.01.8.94.21,1.34-1.23.4-1.45-5.05-1.16-10.26-1.43-15.41-.85-.95.11-.96,1.61,0,1.5h0Z"/>
  <path class="cls-1" d="m58.35,77.06c-2.77,1.27-5.92.72-8.86.9-3.1.19-5.96,1.32-8.79,2.51-.88.37-.49,1.82.4,1.45,3.02-1.27,6-2.42,9.31-2.49,2.96-.07,5.93.21,8.7-1.06.88-.4.11-1.7-.76-1.3h0Z"/>
  <path class="cls-1" d="m56.31,84.04c-.03-.08-.03-.07,0,.02-.01-.04-.03-.07-.04-.11-.02-.05-.04-.11-.06-.16-.04-.13-.08-.26-.1-.39-.02-.08-.03-.15-.04-.23-.03-.17,0,.13,0-.03-.01-.14-.02-.29-.02-.43,0-.13,0-.27.02-.4.02-.2-.02.1,0-.06.01-.07.02-.13.04-.2.03-.13.06-.26.1-.39.02-.06.04-.13.06-.19.01-.04.03-.07.04-.11-.04.09-.04.1,0,.02l-1.37-.18c.07.19.13.37.17.57.02.09.04.18.06.27v.06c.02.07.02.08.01.02,0-.05,0-.05,0,0,0,.03,0,.06,0,.09.02.19.02.37.01.56,0,.1-.01.21-.02.31,0,.09,0,.05,0-.01,0,.05-.02.13-.03.18-.07.38.11.83.52.92.37.08.85-.11.92-.52.18-.95.13-1.94-.21-2.85-.11-.29-.31-.49-.62-.54-.27-.04-.63.09-.75.36-.29.66-.46,1.36-.46,2.08s.17,1.42.47,2.08c.16.36.71.47,1.03.27.37-.24.44-.64.27-1.03h0Z"/>
</svg>